<svg id="visual" viewBox="0 0 900 600" width="900" height="600" xmlns="http://www.w3.org/2000/svg" xmlns:xlink="http://www.w3.org/1999/xlink" version="1.1"><path d="M0 190L25 208.3C50 226.7 100 263.3 150 288.7C200 314 250 328 300 313C350 298 400 254 450 231.5C500 209 550 208 600 214.8C650 221.7 700 236.3 750 267.2C800 298 850 345 875 368.5L900 392L900 0L875 0C850 0 800 0 750 0C700 0 650 0 600 0C550 0 500 0 450 0C400 0 350 0 300 0C250 0 200 0 150 0C100 0 50 0 25 0L0 0Z" fill="#0066FF" stroke-linecap="round" stroke-linejoin="miter"></path></svg>